# xmcd CD database file
#
# Track frame offsets:
#	150
#	8786
#	42152
#	66820
#	79935
#	102307
#	135366
#	165906
#	209625
#	258195
#
# Disc length: 3765 seconds
#
# Revision: 0
# Processed by: cddbd v1.5.2PL0 Copyright (c) Steve Scherf et al.
# Submitted via: CDex 1.70beta2
#
DISCID=7b0eb30a
DTITLE=Christophe Marguet - Ecarlate
DYEAR=2006
DGENRE=Jazz
TTITLE0=Hésitation
TTITLE1=South
TTITLE2=South part 2
TTITLE3=South part 3
TTITLE4=Ornemental
TTITLE5=Selvaggio
TTITLE6=Solaire
TTITLE7=Ballet N de S
TTITLE8=Ecarlate
TTITLE9=Translucide
EXTD=YEAR: 2006
EXTT0=
EXTT1=
EXTT2=
EXTT3=
EXTT4=
EXTT5=
EXTT6=
EXTT7=
EXTT8=
EXTT9=
PLAYORDER=
